<?xml version="1.0" encoding="UTF-8" standalone="no"?>
<!-- Created with Inkscape (http://www.inkscape.org/) -->

<svg
   width="256"
   height="254"
   viewBox="0 0 256 254"
   version="1.1"
   id="svg1"
   xml:space="preserve"
   inkscape:version="1.4.4 (dcaf3e7, 2026-05-05)"
   sodipodi:docname="jetpacs-logo-256.svg"
   inkscape:export-filename="jetpacs-logo.svg"
   inkscape:export-xdpi="96"
   inkscape:export-ydpi="96"
   xmlns:inkscape="http://www.inkscape.org/namespaces/inkscape"
   xmlns:sodipodi="http://sodipodi.sourceforge.net/DTD/sodipodi-0.dtd"
   xmlns:xlink="http://www.w3.org/1999/xlink"
   xmlns="http://www.w3.org/2000/svg"
   xmlns:svg="http://www.w3.org/2000/svg"><sodipodi:namedview
     id="namedview1"
     pagecolor="#505050"
     bordercolor="#eeeeee"
     borderopacity="1"
     inkscape:showpageshadow="0"
     inkscape:pageopacity="0"
     inkscape:pagecheckerboard="0"
     inkscape:deskcolor="#505050"
     inkscape:document-units="px"
     showguides="true"
     showgrid="true"
     inkscape:zoom="2.0026375"
     inkscape:cx="71.405834"
     inkscape:cy="126.08373"
     inkscape:window-width="2038"
     inkscape:window-height="1341"
     inkscape:window-x="0"
     inkscape:window-y="0"
     inkscape:window-maximized="0"
     inkscape:current-layer="svg1"><inkscape:grid
       id="grid1"
       units="px"
       originx="0"
       originy="0"
       spacingx="1"
       spacingy="1"
       empcolor="#0099e5"
       empopacity="0.30196078"
       color="#0099e5"
       opacity="0.14901961"
       empspacing="5"
       enabled="true"
       visible="true" /></sodipodi:namedview><defs
     id="defs1"><linearGradient
       id="linearGradient21"
       inkscape:collect="always"><stop
         style="stop-color:#a52ecb;stop-opacity:0.99215686;"
         offset="0"
         id="stop21" /><stop
         style="stop-color:#8176c0;stop-opacity:0.99607843;"
         offset="0.25"
         id="stop25" /><stop
         style="stop-color:#806bbc;stop-opacity:0.99607843;"
         offset="0.5"
         id="stop23" /><stop
         style="stop-color:#924cc3;stop-opacity:0.99215686;"
         offset="0.75"
         id="stop24" /><stop
         style="stop-color:#a52ecb;stop-opacity:0.99215686;"
         offset="1"
         id="stop22" /></linearGradient><linearGradient
       id="linearGradient4292"><stop
         id="stop4294"
         offset="0"
         style="stop-color:#411f5d;stop-opacity:1" /><stop
         id="stop4296"
         offset="1"
         style="stop-color:#5b2a85;stop-opacity:1" /></linearGradient><linearGradient
       id="linearGradient4284"><stop
         offset="0"
         style="stop-color:#8381c5;stop-opacity:1"
         id="stop4286" /><stop
         id="stop4290"
         style="stop-color:#7e55b3;stop-opacity:0.99607843"
         offset="0.56639391" /><stop
         offset="1"
         style="stop-color:#a52ecb;stop-opacity:0.99215686"
         id="stop4288" /></linearGradient><linearGradient
       id="linearGradient4898"><stop
         id="stop4278"
         style="stop-color:#bab8db;stop-opacity:1"
         offset="0" /><stop
         id="stop4280"
         style="stop-color:#5955a9;stop-opacity:0.99159664"
         offset="1" /></linearGradient><linearGradient
       id="linearGradient3294"><stop
         offset="0"
         style="stop-color:#6376e6;stop-opacity:1"
         id="stop3296" /><stop
         offset="0.50094414"
         style="stop-color:#222989;stop-opacity:1"
         id="stop3302" /><stop
         offset="1"
         style="stop-color:#00003d;stop-opacity:1"
         id="stop3298" /></linearGradient><linearGradient
       id="linearGradient3284"><stop
         offset="0"
         style="stop-color:#000000;stop-opacity:1"
         id="stop3286" /><stop
         offset="0.84845906"
         style="stop-color:#000000;stop-opacity:0.49803922"
         id="stop3292" /><stop
         offset="1"
         style="stop-color:#000000;stop-opacity:0"
         id="stop3288" /></linearGradient><linearGradient
       id="linearGradient3274"><stop
         offset="0"
         style="stop-color:#000000;stop-opacity:1"
         id="stop3276" /><stop
         offset="1"
         style="stop-color:#000000;stop-opacity:0"
         id="stop3278" /></linearGradient><linearGradient
       id="linearGradient3242"><stop
         offset="0"
         style="stop-color:#282828;stop-opacity:1"
         id="stop3244" /><stop
         offset="0.39253417"
         style="stop-color:#808080;stop-opacity:1"
         id="stop3252" /><stop
         offset="1"
         style="stop-color:#d9d9d9;stop-opacity:1"
         id="stop3246" /></linearGradient><linearGradient
       id="linearGradient3202"><stop
         offset="0"
         style="stop-color:#2b2b2b;stop-opacity:1"
         id="stop3204" /><stop
         offset="0.5"
         style="stop-color:#828383;stop-opacity:1"
         id="stop3250" /><stop
         offset="1"
         style="stop-color:#dadbdb;stop-opacity:1"
         id="stop3206" /></linearGradient><linearGradient
       id="linearGradient4966"><stop
         offset="0"
         style="stop-color:#b6b3d8;stop-opacity:1"
         id="stop4968" /><stop
         offset="1"
         style="stop-color:#b6b3d8;stop-opacity:0"
         id="stop4970" /></linearGradient><linearGradient
       id="linearGradient4876"><stop
         offset="0"
         style="stop-color:#d3d2e8;stop-opacity:1"
         id="stop4878" /><stop
         offset="1"
         style="stop-color:#5955a9;stop-opacity:0.99159664"
         id="stop4880" /></linearGradient><radialGradient
       gradientTransform="matrix(0.6817439,0,0,0.5905355,-3.8523706,-28.935273)"
       gradientUnits="userSpaceOnUse"
       xlink:href="#linearGradient4898"
       id="radialGradient4892"
       fy="-108.96888"
       fx="20.951529"
       r="266.76535"
       cy="-108.96888"
       cx="20.951529" /><radialGradient
       gradientTransform="matrix(1,0,0,0.1854103,0,383.88493)"
       gradientUnits="userSpaceOnUse"
       xlink:href="#linearGradient3274"
       id="radialGradient4944"
       fy="471.26172"
       fx="233.8876"
       r="170.49393"
       cy="471.26172"
       cx="233.8876" /><radialGradient
       gradientTransform="matrix(1,0,0,0.9121621,0,32.654948)"
       gradientUnits="userSpaceOnUse"
       xlink:href="#linearGradient4966"
       id="radialGradient4972"
       fy="371.76376"
       fx="299.70135"
       r="76.696358"
       cy="371.76376"
       cx="299.70135" /><radialGradient
       gradientTransform="matrix(0.414705,0.3300575,-0.5059004,0.6356454,346.95314,49.479585)"
       gradientUnits="userSpaceOnUse"
       xlink:href="#linearGradient3202"
       id="radialGradient3210"
       fy="390.45248"
       fx="289.44067"
       r="17.67668"
       cy="390.45248"
       cx="289.44067" /><radialGradient
       gradientTransform="matrix(0.414705,0.3300575,-0.5059004,0.6356454,448.41009,-65.398074)"
       gradientUnits="userSpaceOnUse"
       xlink:href="#linearGradient3202"
       id="radialGradient3238"
       fy="382.14804"
       fx="283.50717"
       r="17.67668"
       cy="382.14804"
       cx="283.50717" /><radialGradient
       gradientTransform="matrix(-0.06556501,-0.05972176,1.6871024,-1.8521705,171.90774,540.51473)"
       gradientUnits="userSpaceOnUse"
       xlink:href="#linearGradient3242"
       id="radialGradient3248"
       fy="181.18982"
       fx="418.45551"
       r="63.068935"
       cy="181.18982"
       cx="418.45551" /><radialGradient
       gradientTransform="matrix(0.4055116,-0.03344012,0.1034174,4.3988695,177.23251,-1191.6649)"
       gradientUnits="userSpaceOnUse"
       xlink:href="#linearGradient3274"
       id="radialGradient3268"
       fy="357.33591"
       fx="354.51709"
       r="33.712105"
       cy="357.33591"
       cx="354.51709" /><radialGradient
       gradientTransform="matrix(-0.1339874,-0.1146812,0.3079048,-0.3597394,444.23592,395.03849)"
       gradientUnits="userSpaceOnUse"
       xlink:href="#linearGradient3274"
       id="radialGradient3280"
       fy="223.55537"
       fx="510.58469"
       r="132.28336"
       cy="223.55537"
       cx="510.58469" /><radialGradient
       gradientTransform="matrix(-1.2497569,1.3798305,-0.09628946,-0.07297448,674.3826,-70.590682)"
       gradientUnits="userSpaceOnUse"
       xlink:href="#linearGradient3284"
       id="radialGradient3290"
       fy="-158.17821"
       fx="284.4671"
       r="110.2972"
       cy="-158.17821"
       cx="284.4671" /><radialGradient
       gradientTransform="matrix(-0.1008165,-0.08087232,1.0745309,-1.3395252,13.843287,784.79288)"
       gradientUnits="userSpaceOnUse"
       xlink:href="#linearGradient3294"
       id="radialGradient3300"
       fy="356.62274"
       fx="425.51019"
       r="143.34167"
       cy="356.62274"
       cx="425.51019" /><filter
       height="1.1062305"
       y="-0.053115233"
       width="1.1073157"
       x="-0.053657864"
       id="filter4350"
       style="color-interpolation-filters:sRGB"><feGaussianBlur
         id="feGaussianBlur4352"
         stdDeviation="8.7848425" /></filter><linearGradient
       y2="300.73987"
       x2="236.61363"
       y1="-161.8512"
       x1="-122.20192"
       spreadMethod="pad"
       gradientTransform="matrix(0.87385837,0,0,0.82818057,246.00762,250.28138)"
       gradientUnits="userSpaceOnUse"
       id="linearGradient4245"
       xlink:href="#linearGradient4284" /><linearGradient
       y2="66.018341"
       x2="173.94518"
       y1="396.6066"
       x1="447.80933"
       gradientTransform="matrix(0.98684959,0,0,0.98684959,3.0344187,2.5250397)"
       gradientUnits="userSpaceOnUse"
       id="linearGradient4247"
       xlink:href="#linearGradient4292" /><linearGradient
       inkscape:collect="always"
       xlink:href="#linearGradient21"
       id="linearGradient22"
       x1="30.509817"
       y1="63.879368"
       x2="47.269051"
       y2="63.879368"
       gradientUnits="userSpaceOnUse" /><linearGradient
       inkscape:collect="always"
       xlink:href="#linearGradient21"
       id="linearGradient25"
       gradientUnits="userSpaceOnUse"
       x1="30.509817"
       y1="63.879368"
       x2="47.269051"
       y2="63.879368" /><linearGradient
       inkscape:collect="always"
       xlink:href="#linearGradient21"
       id="linearGradient26"
       gradientUnits="userSpaceOnUse"
       x1="30.509817"
       y1="63.879368"
       x2="47.269051"
       y2="63.879368" /></defs><g
     id="g2"
     transform="matrix(1.408,0,0,1.408,-49.166325,-57.044173)"><g
       inkscape:label="Layer 1"
       inkscape:groupmode="layer"
       id="layer1"
       transform="matrix(3.195731,0,0,3.195731,-49.743357,-42.803351)"><g
         id="g12"
         transform="matrix(1.21,0,0,1.21,-6.0241751,-8.8884495)"><g
           id="g13"
           style="fill:#efeadc;fill-opacity:1;stroke:url(#linearGradient22);stroke-width:1.00017;stroke-dasharray:none"><path
             id="path12"
             d="m 36.092045,55.171025 c -1.178331,0.01167 -2.174739,0.426106 -2.991408,1.242773 -0.606662,0.606667 -1.1025,1.550846 -1.4875,2.834179 -0.385,1.283334 -0.753319,3.197488 -1.103319,5.740821 2.543331,-0.35 4.451377,-0.72306 5.723046,-1.119727 1.271669,-0.396667 2.211111,-0.898606 2.817773,-1.505273 0.816669,-0.816667 1.229739,-1.81444 1.241408,-2.992773 0.01169,-1.178334 -0.390558,-2.176107 -1.207227,-2.992774 -0.816669,-0.816667 -1.814442,-1.218893 -2.992773,-1.207226 z m -0.03416,2.064452 c 0.595,-0.01167 1.113896,0.1925 1.557227,0.6125 0.42,0.443334 0.624169,0.963594 0.6125,1.558594 -0.01169,0.595 -0.238896,1.090834 -0.682227,1.4875 -0.35,0.326667 -0.898058,0.618333 -1.644727,0.875 -0.746662,0.256667 -1.704423,0.477787 -2.871092,0.664454 0.186669,-1.166667 0.40915,-2.12306 0.665819,-2.869727 0.256669,-0.746667 0.548331,-1.294727 0.875,-1.644727 0.396669,-0.443333 0.8925,-0.671927 1.4875,-0.683594 z"
             style="fill:#efeadc;fill-opacity:1;stroke:url(#linearGradient25);stroke-width:1.00017;stroke-dasharray:none;stroke-opacity:0.996078" /><path
             id="path12-1"
             d="m 43.068803,62.770181 c -1.178324,0.01167 -2.174739,0.426106 -2.991401,1.242773 -0.606662,0.606666 -1.1025,1.550846 -1.4875,2.83418 -0.385,1.283333 -0.753319,3.197488 -1.103319,5.740819 2.543331,-0.35 4.451377,-0.723058 5.723046,-1.119727 1.271669,-0.396666 2.211111,-0.898604 2.817773,-1.505273 0.816662,-0.816666 1.229739,-1.814439 1.241401,-2.992772 0.01169,-1.178334 -0.390558,-2.176107 -1.20722,-2.992774 -0.816669,-0.816667 -1.814442,-1.218893 -2.99278,-1.207226 z m -0.03416,2.064453 c 0.595,-0.01167 1.113889,0.1925 1.557227,0.6125 0.42,0.443333 0.624162,0.963593 0.6125,1.558593 -0.01169,0.595 -0.238896,1.090834 -0.682227,1.487499 -0.35,0.326669 -0.898065,0.618334 -1.644727,0.875 -0.746669,0.256669 -1.70443,0.477788 -2.871099,0.664454 0.186669,-1.166666 0.409157,-2.12306 0.665826,-2.869726 0.256662,-0.746667 0.548331,-1.294727 0.875,-1.644727 0.396662,-0.443333 0.8925,-0.671926 1.4875,-0.683593 z"
             style="fill:#efeadc;fill-opacity:1;stroke:url(#linearGradient26);stroke-width:1.00017;stroke-dasharray:none;stroke-opacity:0.996078" /></g><path
           d="m 58.875272,69.559299 -2.52,-5.774999 q 2.59,-1.015 4.5325,-2.205 1.9425,-1.19 4.1125,-3.115 l 0.49,2.695 q 0.14,0.7 -0.07,1.3825 -0.21,0.6825 -0.7,1.1725 z"
           id="path5"
           style="fill:#421f5e;fill-opacity:1;stroke-width:0.035" /><path
           d="m 50.618277,52.271295 q 0.945,-2.555 2.38,-4.8125 1.435,-2.2575 3.255,-4.0775 3.08,-3.08 7.035,-4.6025 3.955,-1.5225 7.385,-0.9275 0.595,3.43 -0.91,7.385 -1.505,3.955 -4.585,7.035 -1.82,1.820003 -4.095,3.255003 -2.275,1.435 -4.83,2.38 z"
           id="path4"
           style="fill:#421f5e;fill-opacity:1;stroke-width:0.035" /><path
           d="m 35.152829,54.67407 q 0.945,-2.555 2.38,-4.8125 1.435,-2.2575 3.255,-4.0775 3.08,-3.08 7.035,-4.6025 3.955,-1.5225 7.385,-0.9275 0.595,3.43 -0.91,7.385 -1.505,3.955 -4.585,7.035 -1.82,1.82 -4.095,3.255 -2.275,1.435 -4.83,2.38 z"
           id="path4-1"
           style="fill:#421f5e;fill-opacity:1;stroke-width:0.035" /><path
           d="m 42.232308,62.126906 q 0.945,-2.555 2.38,-4.8125 1.435,-2.2575 3.255,-4.0775 3.08,-3.08 7.035,-4.6025 3.955,-1.5225 7.385,-0.9275 0.595,3.43 -0.91,7.385 -1.505,3.955 -4.585,7.035 -1.82,1.82 -4.095,3.255 -2.275,1.435 -4.83,2.38 z"
           id="path4-14"
           style="fill:#421f5e;fill-opacity:1;stroke-width:0.035" /><path
           d="m 43.405422,45.851579 q 0.945,-2.555001 2.38,-4.8125 1.435,-2.257501 3.255,-4.0775 3.08,-3.08 7.035001,-4.602501 3.954999,-1.5225 7.384999,-0.9275 0.595,3.43 -0.91,7.385 -1.505,3.955 -4.584999,7.035 -1.820001,1.82 -4.095,3.255 -2.275001,1.435 -4.83,2.38 z"
           id="path4-16"
           style="fill:#421f5e;fill-opacity:1;stroke-width:0.035" /><path
           d="m 32.24015,42.117126 5.88,-5.88 q 0.49,-0.49 1.155,-0.7 0.665,-0.21 1.365,-0.07 l 2.695,0.49 q -1.925,2.17 -3.115,4.1125 -1.19,1.9425 -2.205,4.5325 z"
           id="path1-5"
           style="fill:#5b2a85;fill-opacity:1;stroke-width:0.035" /></g></g><g
       inkscape:groupmode="layer"
       id="layer2"
       inkscape:label="Layer 2"
       style="display:inline"
       transform="matrix(2.90521,0,0,2.90521,-95.945004,-112.17215)"><g
         id="g1"
         transform="matrix(0.08734688,0,0,0.08734687,56.791585,56.780222)"
         style="display:inline"><rect
           style="display:none;fill:none"
           id="rect4772"
           y="0.20100001"
           x="0.171"
           height="512"
           width="512" /><g
           style="display:none"
           id="g4788"><g
             style="display:inline"
             id="g4790" /></g><g
           style="display:none"
           id="g4806"><g
             style="display:inline"
             id="g4808"><path
               style="display:none;fill:#050505"
               id="path4810"
               d="m 349.098,256.651 c -0.265,-0.254 37.637,27.605 39.421,25.012 6.362,-9.252 82.046,-93.137 84.784,-116.236 0.242,-2.003 -0.516,-4.096 -0.516,-4.096 0,0 -1.19,-0.144 -6.325,-4.314 -2.692,-2.192 -5.483,-4.581 -5.483,-4.581 -16.054,0.998 -57.885,41.559 -111.062,103.568" /></g></g><path
           style="opacity:0.405;fill:#211f46;fill-opacity:0.996078;stroke:#0a0b1b;stroke-width:8.53333;stroke-miterlimit:4;stroke-dasharray:none;stroke-opacity:1;filter:url(#filter4350)"
           id="path4233"
           d="m 491.66937,257.75916 c 0,131.79436 -105.76,238.63481 -236.22155,238.63481 -130.46155,0 -236.221539,-106.84045 -236.221539,-238.63481 0,-131.79437 105.759989,-238.634808 236.221539,-238.634808 130.46155,0 236.22155,106.840438 236.22155,238.634808 z"
           transform="matrix(0.98684957,0,0,0.98684957,3.0344041,2.5250397)" /><path
           d="m 488.23812,256.89456 c 0,130.06121 -104.3692,235.49665 -233.1151,235.49665 -128.7459,0 -233.115201,-105.43544 -233.115201,-235.49665 0,-130.06123 104.369301,-235.49666 233.115201,-235.49666 128.7459,0 233.1151,105.43543 233.1151,235.49666 z"
           id="path4235"
           style="opacity:1;fill:url(#linearGradient4245);fill-opacity:1;stroke:url(#linearGradient4247);stroke-width:13.3382;stroke-miterlimit:4;stroke-dasharray:none;stroke-opacity:1" /><path
           d="m 167.98517,439.25162 c 0,0 21.71235,1.53597 49.64432,-0.92575 11.31174,-0.99693 54.25937,-5.21541 86.36859,-12.25718 0,0 39.14889,-8.37836 60.09311,-16.09669 21.91475,-8.07603 33.83996,-14.93034 39.20763,-24.64267 -0.23408,-1.98998 1.65264,-9.04682 -8.4535,-13.28567 -25.83757,-10.83719 -55.803,-8.87698 -115.09718,-10.13413 -65.75492,-2.2593 -87.62897,-13.26568 -99.28116,-22.13022 -11.17369,-8.99271 -5.555,-33.87179 42.32162,-55.78649 24.11684,-11.66988 118.65755,-33.20568 118.65755,-33.20568 -31.83961,-15.73797 -91.21046,-43.40482 -103.41474,-49.37925 -10.70388,-5.23983 -27.8333,-13.12955 -31.54635,-22.67505 -4.20981,-9.16398 9.94213,-17.05798 17.84728,-19.31859 25.45928,-7.34363 61.40002,-11.90792 94.11028,-12.42035 16.44192,-0.25758 19.11074,-1.31544 19.11074,-1.31544 22.68673,-3.76328 37.62154,-19.28493 31.39906,-43.86664 -5.58613,-25.091504 -35.04787,-39.835013 -63.04518,-34.730969 -26.36502,4.806516 -89.91158,23.265077 -89.91158,23.265077 78.54825,-0.679833 91.69512,0.631158 97.5667,8.840436 3.46753,4.848166 -1.57564,11.495746 -22.52415,14.917086 -22.8063,3.72478 -70.21432,8.21039 -70.21432,8.21039 -45.47939,2.70094 -77.51502,2.88172 -87.1233,23.22446 -6.27715,13.29015 6.69394,25.03963 12.37918,32.39423 24.02477,26.71795 58.72702,41.12766 81.06428,51.73908 8.40455,3.99259 33.06446,11.53248 33.06446,11.53248 -72.46602,-3.98569 -124.74033,18.26605 -155.40404,43.88584 -34.681676,32.07887 -19.33954,70.31589 51.71364,93.85948 41.96687,13.90576 62.77975,20.44564 125.37965,14.80855 36.872,-1.9874 42.68451,-0.80471 43.05213,2.22081 0.51755,4.25966 -40.95421,14.84082 -52.2764,18.10666 -28.80383,8.30837 -104.31036,25.08482 -104.68832,25.16619 z"
           id="path4237"
           style="fill:#efeadc;fill-opacity:1;fill-rule:evenodd;stroke:#000000;stroke-width:0;stroke-linecap:butt;stroke-linejoin:miter;stroke-miterlimit:4;stroke-dasharray:none;stroke-opacity:1" /></g></g></g></svg>
