<?xml version="1.0" encoding="UTF-8" standalone="no"?>
<!-- Created with Inkscape (http://www.inkscape.org/) -->

<svg
   width="108"
   height="108"
   viewBox="0 0 108 108"
   version="1.1"
   id="svg1"
   xml:space="preserve"
   inkscape:version="1.4.4 (dcaf3e7, 2026-05-05)"
   sodipodi:docname="jetpacs-logo.svg"
   inkscape:export-filename="jetpacs-logo.svg"
   inkscape:export-xdpi="96"
   inkscape:export-ydpi="96"
   xmlns:inkscape="http://www.inkscape.org/namespaces/inkscape"
   xmlns:sodipodi="http://sodipodi.sourceforge.net/DTD/sodipodi-0.dtd"
   xmlns:xlink="http://www.w3.org/1999/xlink"
   xmlns="http://www.w3.org/2000/svg"
   xmlns:svg="http://www.w3.org/2000/svg"><sodipodi:namedview
     id="namedview1"
     pagecolor="#505050"
     bordercolor="#eeeeee"
     borderopacity="1"
     inkscape:showpageshadow="0"
     inkscape:pageopacity="0"
     inkscape:pagecheckerboard="0"
     inkscape:deskcolor="#505050"
     inkscape:document-units="px"
     showguides="true"
     showgrid="true"
     inkscape:zoom="8.0105499"
     inkscape:cx="14.480903"
     inkscape:cy="54.553059"
     inkscape:window-width="2038"
     inkscape:window-height="1342"
     inkscape:window-x="1"
     inkscape:window-y="0"
     inkscape:window-maximized="0"
     inkscape:current-layer="g12"><inkscape:grid
       id="grid1"
       units="px"
       originx="0"
       originy="0"
       spacingx="1"
       spacingy="1"
       empcolor="#0099e5"
       empopacity="0.30196078"
       color="#0099e5"
       opacity="0.14901961"
       empspacing="5"
       enabled="true"
       visible="true" /></sodipodi:namedview><defs
     id="defs1"><linearGradient
       id="linearGradient21"
       inkscape:collect="always"><stop
         style="stop-color:#a52ecb;stop-opacity:0.99215686;"
         offset="0"
         id="stop21" /><stop
         style="stop-color:#8176c0;stop-opacity:0.99607843;"
         offset="0.25"
         id="stop25" /><stop
         style="stop-color:#806bbc;stop-opacity:0.99607843;"
         offset="0.5"
         id="stop23" /><stop
         style="stop-color:#924cc3;stop-opacity:0.99215686;"
         offset="0.75"
         id="stop24" /><stop
         style="stop-color:#a52ecb;stop-opacity:0.99215686;"
         offset="1"
         id="stop22" /></linearGradient><linearGradient
       id="linearGradient4292"><stop
         id="stop4294"
         offset="0"
         style="stop-color:#411f5d;stop-opacity:1" /><stop
         id="stop4296"
         offset="1"
         style="stop-color:#5b2a85;stop-opacity:1" /></linearGradient><linearGradient
       id="linearGradient4284"><stop
         offset="0"
         style="stop-color:#8381c5;stop-opacity:1"
         id="stop4286" /><stop
         id="stop4290"
         style="stop-color:#7e55b3;stop-opacity:0.99607843"
         offset="0.56639391" /><stop
         offset="1"
         style="stop-color:#a52ecb;stop-opacity:0.99215686"
         id="stop4288" /></linearGradient><linearGradient
       id="linearGradient4898"><stop
         id="stop4278"
         style="stop-color:#bab8db;stop-opacity:1"
         offset="0" /><stop
         id="stop4280"
         style="stop-color:#5955a9;stop-opacity:0.99159664"
         offset="1" /></linearGradient><linearGradient
       id="linearGradient3294"><stop
         offset="0"
         style="stop-color:#6376e6;stop-opacity:1"
         id="stop3296" /><stop
         offset="0.50094414"
         style="stop-color:#222989;stop-opacity:1"
         id="stop3302" /><stop
         offset="1"
         style="stop-color:#00003d;stop-opacity:1"
         id="stop3298" /></linearGradient><linearGradient
       id="linearGradient3284"><stop
         offset="0"
         style="stop-color:#000000;stop-opacity:1"
         id="stop3286" /><stop
         offset="0.84845906"
         style="stop-color:#000000;stop-opacity:0.49803922"
         id="stop3292" /><stop
         offset="1"
         style="stop-color:#000000;stop-opacity:0"
         id="stop3288" /></linearGradient><linearGradient
       id="linearGradient3274"><stop
         offset="0"
         style="stop-color:#000000;stop-opacity:1"
         id="stop3276" /><stop
         offset="1"
         style="stop-color:#000000;stop-opacity:0"
         id="stop3278" /></linearGradient><linearGradient
       id="linearGradient3242"><stop
         offset="0"
         style="stop-color:#282828;stop-opacity:1"
         id="stop3244" /><stop
         offset="0.39253417"
         style="stop-color:#808080;stop-opacity:1"
         id="stop3252" /><stop
         offset="1"
         style="stop-color:#d9d9d9;stop-opacity:1"
         id="stop3246" /></linearGradient><linearGradient
       id="linearGradient3202"><stop
         offset="0"
         style="stop-color:#2b2b2b;stop-opacity:1"
         id="stop3204" /><stop
         offset="0.5"
         style="stop-color:#828383;stop-opacity:1"
         id="stop3250" /><stop
         offset="1"
         style="stop-color:#dadbdb;stop-opacity:1"
         id="stop3206" /></linearGradient><linearGradient
       id="linearGradient4966"><stop
         offset="0"
         style="stop-color:#b6b3d8;stop-opacity:1"
         id="stop4968" /><stop
         offset="1"
         style="stop-color:#b6b3d8;stop-opacity:0"
         id="stop4970" /></linearGradient><linearGradient
       id="linearGradient4876"><stop
         offset="0"
         style="stop-color:#d3d2e8;stop-opacity:1"
         id="stop4878" /><stop
         offset="1"
         style="stop-color:#5955a9;stop-opacity:0.99159664"
         id="stop4880" /></linearGradient><radialGradient
       gradientTransform="matrix(0.6817439,0,0,0.5905355,-3.8523706,-28.935273)"
       gradientUnits="userSpaceOnUse"
       xlink:href="#linearGradient4898"
       id="radialGradient4892"
       fy="-108.96888"
       fx="20.951529"
       r="266.76535"
       cy="-108.96888"
       cx="20.951529" /><radialGradient
       gradientTransform="matrix(1,0,0,0.1854103,0,383.88493)"
       gradientUnits="userSpaceOnUse"
       xlink:href="#linearGradient3274"
       id="radialGradient4944"
       fy="471.26172"
       fx="233.8876"
       r="170.49393"
       cy="471.26172"
       cx="233.8876" /><radialGradient
       gradientTransform="matrix(1,0,0,0.9121621,0,32.654948)"
       gradientUnits="userSpaceOnUse"
       xlink:href="#linearGradient4966"
       id="radialGradient4972"
       fy="371.76376"
       fx="299.70135"
       r="76.696358"
       cy="371.76376"
       cx="299.70135" /><radialGradient
       gradientTransform="matrix(0.414705,0.3300575,-0.5059004,0.6356454,346.95314,49.479585)"
       gradientUnits="userSpaceOnUse"
       xlink:href="#linearGradient3202"
       id="radialGradient3210"
       fy="390.45248"
       fx="289.44067"
       r="17.67668"
       cy="390.45248"
       cx="289.44067" /><radialGradient
       gradientTransform="matrix(0.414705,0.3300575,-0.5059004,0.6356454,448.41009,-65.398074)"
       gradientUnits="userSpaceOnUse"
       xlink:href="#linearGradient3202"
       id="radialGradient3238"
       fy="382.14804"
       fx="283.50717"
       r="17.67668"
       cy="382.14804"
       cx="283.50717" /><radialGradient
       gradientTransform="matrix(-6.5565014e-2,-5.9721765e-2,1.6871024,-1.8521705,171.90774,540.51473)"
       gradientUnits="userSpaceOnUse"
       xlink:href="#linearGradient3242"
       id="radialGradient3248"
       fy="181.18982"
       fx="418.45551"
       r="63.068935"
       cy="181.18982"
       cx="418.45551" /><radialGradient
       gradientTransform="matrix(0.4055116,-3.3440123e-2,0.1034174,4.3988695,177.23251,-1191.6649)"
       gradientUnits="userSpaceOnUse"
       xlink:href="#linearGradient3274"
       id="radialGradient3268"
       fy="357.33591"
       fx="354.51709"
       r="33.712105"
       cy="357.33591"
       cx="354.51709" /><radialGradient
       gradientTransform="matrix(-0.1339874,-0.1146812,0.3079048,-0.3597394,444.23592,395.03849)"
       gradientUnits="userSpaceOnUse"
       xlink:href="#linearGradient3274"
       id="radialGradient3280"
       fy="223.55537"
       fx="510.58469"
       r="132.28336"
       cy="223.55537"
       cx="510.58469" /><radialGradient
       gradientTransform="matrix(-1.2497569,1.3798305,-9.6289463e-2,-7.2974479e-2,674.3826,-70.590682)"
       gradientUnits="userSpaceOnUse"
       xlink:href="#linearGradient3284"
       id="radialGradient3290"
       fy="-158.17821"
       fx="284.4671"
       r="110.2972"
       cy="-158.17821"
       cx="284.4671" /><radialGradient
       gradientTransform="matrix(-0.1008165,-8.0872321e-2,1.0745309,-1.3395252,13.843287,784.79288)"
       gradientUnits="userSpaceOnUse"
       xlink:href="#linearGradient3294"
       id="radialGradient3300"
       fy="356.62274"
       fx="425.51019"
       r="143.34167"
       cy="356.62274"
       cx="425.51019" /><filter
       height="1.1062305"
       y="-0.053115233"
       width="1.1073157"
       x="-0.053657864"
       id="filter4350"
       style="color-interpolation-filters:sRGB"><feGaussianBlur
         id="feGaussianBlur4352"
         stdDeviation="8.7848425" /></filter><linearGradient
       y2="300.73987"
       x2="236.61363"
       y1="-161.8512"
       x1="-122.20192"
       spreadMethod="pad"
       gradientTransform="matrix(0.87385837,0,0,0.82818057,246.00762,250.28138)"
       gradientUnits="userSpaceOnUse"
       id="linearGradient4245"
       xlink:href="#linearGradient4284" /><linearGradient
       y2="66.018341"
       x2="173.94518"
       y1="396.6066"
       x1="447.80933"
       gradientTransform="matrix(0.98684959,0,0,0.98684959,3.0344187,2.5250397)"
       gradientUnits="userSpaceOnUse"
       id="linearGradient4247"
       xlink:href="#linearGradient4292" /><linearGradient
       inkscape:collect="always"
       xlink:href="#linearGradient21"
       id="linearGradient22"
       x1="30.509818"
       y1="63.879366"
       x2="47.269051"
       y2="63.879366"
       gradientUnits="userSpaceOnUse" /><linearGradient
       inkscape:collect="always"
       xlink:href="#linearGradient21"
       id="linearGradient25"
       gradientUnits="userSpaceOnUse"
       x1="30.509818"
       y1="63.879366"
       x2="47.269051"
       y2="63.879366" /><linearGradient
       inkscape:collect="always"
       xlink:href="#linearGradient21"
       id="linearGradient26"
       gradientUnits="userSpaceOnUse"
       x1="30.509818"
       y1="63.879366"
       x2="47.269051"
       y2="63.879366" /></defs><g
     inkscape:label="Layer 1"
     inkscape:groupmode="layer"
     id="layer1"
     transform="matrix(1.2782924,0,0,1.2782924,-15.306825,-15.092671)"><g
       id="g12"
       transform="matrix(1.21,0,0,1.21,-6.0241751,-8.8884495)"><g
         id="g13"
         style="fill:#efeadc;fill-opacity:1;stroke:url(#linearGradient22);stroke-width:1.0001721;stroke-dasharray:none"><path
           id="path12"
           d="m 36.092045,55.171025 c -1.178331,0.01167 -2.174739,0.426106 -2.991408,1.242773 -0.606662,0.606667 -1.1025,1.550846 -1.4875,2.834179 -0.385,1.283334 -0.753319,3.197488 -1.103319,5.740821 2.543331,-0.35 4.451377,-0.72306 5.723046,-1.119727 1.271669,-0.396667 2.211111,-0.898606 2.817773,-1.505273 0.816669,-0.816667 1.229739,-1.81444 1.241408,-2.992773 0.01169,-1.178334 -0.390558,-2.176107 -1.207227,-2.992774 -0.816669,-0.816667 -1.814442,-1.218893 -2.992773,-1.207226 z m -0.03416,2.064452 c 0.595,-0.01167 1.113896,0.1925 1.557227,0.6125 0.42,0.443334 0.624169,0.963594 0.6125,1.558594 -0.01169,0.595 -0.238896,1.090834 -0.682227,1.4875 -0.35,0.326667 -0.898058,0.618333 -1.644727,0.875 -0.746662,0.256667 -1.704423,0.477787 -2.871092,0.664454 0.186669,-1.166667 0.40915,-2.12306 0.665819,-2.869727 0.256669,-0.746667 0.548331,-1.294727 0.875,-1.644727 0.396669,-0.443333 0.8925,-0.671927 1.4875,-0.683594 z"
           style="fill:#efeadc;fill-opacity:1;stroke:url(#linearGradient25);stroke-width:1.0001721;stroke-dasharray:none;stroke-opacity:0.996078" /><path
           id="path12-1"
           d="m 43.068803,62.770181 c -1.178324,0.01167 -2.174739,0.426106 -2.991401,1.242773 -0.606662,0.606666 -1.1025,1.550846 -1.4875,2.83418 -0.385,1.283333 -0.753319,3.197488 -1.103319,5.740819 2.543331,-0.35 4.451377,-0.723058 5.723046,-1.119727 1.271669,-0.396666 2.211111,-0.898604 2.817773,-1.505273 0.816662,-0.816666 1.229739,-1.814439 1.241401,-2.992772 0.01169,-1.178334 -0.390558,-2.176107 -1.20722,-2.992774 -0.816669,-0.816667 -1.814442,-1.218893 -2.99278,-1.207226 z m -0.03416,2.064453 c 0.595,-0.01167 1.113889,0.1925 1.557227,0.6125 0.42,0.443333 0.624162,0.963593 0.6125,1.558593 -0.01169,0.595 -0.238896,1.090834 -0.682227,1.487499 -0.35,0.326669 -0.898065,0.618334 -1.644727,0.875 -0.746669,0.256669 -1.70443,0.477788 -2.871099,0.664454 0.186669,-1.166666 0.409157,-2.12306 0.665826,-2.869726 0.256662,-0.746667 0.548331,-1.294727 0.875,-1.644727 0.396662,-0.443333 0.8925,-0.671926 1.4875,-0.683593 z"
           style="fill:#efeadc;fill-opacity:1;stroke:url(#linearGradient26);stroke-width:1.0001721;stroke-dasharray:none;stroke-opacity:0.996078" /></g><path
         d="m 58.875272,69.559299 -2.52,-5.774999 q 2.59,-1.015 4.5325,-2.205 1.9425,-1.19 4.1125,-3.115 l 0.49,2.695 q 0.14,0.7 -0.07,1.3825 -0.21,0.6825 -0.7,1.1725 z"
         id="path5"
         style="fill:#421f5e;fill-opacity:1;stroke-width:0.035" /><path
         d="m 50.618277,52.271295 q 0.945,-2.555 2.38,-4.8125 1.435,-2.2575 3.255,-4.0775 3.08,-3.08 7.035,-4.6025 3.955,-1.5225 7.385,-0.9275 0.595,3.43 -0.91,7.385 -1.505,3.955 -4.585,7.035 -1.82,1.820003 -4.095,3.255003 -2.275,1.435 -4.83,2.38 z"
         id="path4"
         style="fill:#421f5e;fill-opacity:1;stroke-width:0.035" /><path
         d="m 35.152829,54.67407 q 0.945,-2.555 2.38,-4.8125 1.435,-2.2575 3.255,-4.0775 3.08,-3.08 7.035,-4.6025 3.955,-1.5225 7.385,-0.9275 0.595,3.43 -0.91,7.385 -1.505,3.955 -4.585,7.035 -1.82,1.82 -4.095,3.255 -2.275,1.435 -4.83,2.38 z"
         id="path4-1"
         style="fill:#421f5e;fill-opacity:1;stroke-width:0.035" /><path
         d="m 42.232308,62.126906 q 0.945,-2.555 2.38,-4.8125 1.435,-2.2575 3.255,-4.0775 3.08,-3.08 7.035,-4.6025 3.955,-1.5225 7.385,-0.9275 0.595,3.43 -0.91,7.385 -1.505,3.955 -4.585,7.035 -1.82,1.82 -4.095,3.255 -2.275,1.435 -4.83,2.38 z"
         id="path4-14"
         style="fill:#421f5e;fill-opacity:1;stroke-width:0.035" /><path
         d="m 43.405422,45.851579 q 0.945,-2.555001 2.38,-4.8125 1.435,-2.257501 3.255,-4.0775 3.08,-3.08 7.035001,-4.602501 3.954999,-1.5225 7.384999,-0.9275 0.595,3.43 -0.91,7.385 -1.505,3.955 -4.584999,7.035 -1.820001,1.82 -4.095,3.255 -2.275001,1.435 -4.83,2.38 z"
         id="path4-16"
         style="fill:#421f5e;fill-opacity:1;stroke-width:0.035" /><path
         d="m 32.24015,42.117126 5.88,-5.88 q 0.49,-0.49 1.155,-0.7 0.665,-0.21 1.365,-0.07 l 2.695,0.49 q -1.925,2.17 -3.115,4.1125 -1.19,1.9425 -2.205,4.5325 z"
         id="path1-5"
         style="fill:#5b2a85;fill-opacity:1;stroke-width:0.035" /></g></g><g
     inkscape:groupmode="layer"
     id="layer2"
     inkscape:label="Layer 2"
     style="display:inline"
     transform="matrix(1.162084,0,0,1.162084,-5.4248855,-12.280491)"><g
       id="g1"
       transform="matrix(0.08734688,0,0,0.08734687,32.384918,30.482898)"
       style="display:inline"><rect
         style="display:none;fill:none"
         id="rect4772"
         y="0.20100001"
         x="0.171"
         height="512"
         width="512" /><g
         style="display:none"
         id="g4788"><g
           style="display:inline"
           id="g4790" /></g><g
         style="display:none"
         id="g4806"><g
           style="display:inline"
           id="g4808"><path
             style="display:none;fill:#050505"
             id="path4810"
             d="m 349.098,256.651 c -0.265,-0.254 37.637,27.605 39.421,25.012 6.362,-9.252 82.046,-93.137 84.784,-116.236 0.242,-2.003 -0.516,-4.096 -0.516,-4.096 0,0 -1.19,-0.144 -6.325,-4.314 -2.692,-2.192 -5.483,-4.581 -5.483,-4.581 -16.054,0.998 -57.885,41.559 -111.062,103.568" /></g></g><path
         style="opacity:0.405;fill:#211f46;fill-opacity:0.996078;stroke:#0a0b1b;stroke-width:8.53333;stroke-miterlimit:4;stroke-dasharray:none;stroke-opacity:1;filter:url(#filter4350)"
         id="path4233"
         d="m 491.66937,257.75916 c 0,131.79436 -105.76,238.63481 -236.22155,238.63481 -130.46155,0 -236.221539,-106.84045 -236.221539,-238.63481 0,-131.79437 105.759989,-238.634808 236.221539,-238.634808 130.46155,0 236.22155,106.840438 236.22155,238.634808 z"
         transform="matrix(0.98684957,0,0,0.98684957,3.0344041,2.5250397)" /><path
         d="m 488.23812,256.89456 c 0,130.06121 -104.3692,235.49665 -233.1151,235.49665 -128.7459,0 -233.115201,-105.43544 -233.115201,-235.49665 0,-130.06123 104.369301,-235.49666 233.115201,-235.49666 128.7459,0 233.1151,105.43543 233.1151,235.49666 z"
         id="path4235"
         style="opacity:1;fill:url(#linearGradient4245);fill-opacity:1;stroke:url(#linearGradient4247);stroke-width:13.3382;stroke-miterlimit:4;stroke-dasharray:none;stroke-opacity:1" /><path
         d="m 175.0003,422.31057 c 0,0 19.7385,1.39634 45.1312,-0.84159 10.2834,-0.9063 49.3267,-4.74128 78.5169,-11.14289 0,0 35.5899,-7.61669 54.6301,-14.63335 19.9225,-7.34185 30.7636,-13.57304 35.6433,-22.40243 -0.2128,-1.80907 1.5024,-8.22438 -7.685,-12.07788 -23.4887,-9.85199 -50.73,-8.06998 -104.6338,-9.21285 -59.7772,-2.05391 -79.6627,-12.05971 -90.2556,-20.11838 -10.1579,-8.17519 -5.05,-30.79254 38.4742,-50.71499 21.9244,-10.60898 107.8705,-30.18698 107.8705,-30.18698 -28.9451,-14.30725 -82.9186,-39.45893 -94.0134,-44.89023 -9.7308,-4.76348 -25.303,-11.93595 -28.6785,-20.61368 -3.8271,-8.33089 9.0383,-15.50726 16.2248,-17.56236 23.1448,-6.67602 55.8182,-10.82538 85.5548,-11.29122 14.9472,-0.23417 17.3734,-1.19586 17.3734,-1.19586 20.6243,-3.42116 34.2014,-17.53175 28.5446,-39.87876 -5.0783,-22.81046 -31.8617,-36.21365 -57.3138,-31.57361 -23.9682,4.36956 -81.7378,21.15007 -81.7378,21.15007 71.4075,-0.61803 83.3592,0.57378 88.697,8.03676 3.1523,4.40742 -1.4324,10.45068 -20.4765,13.56099 -20.733,3.38616 -63.8312,7.46399 -63.8312,7.46399 -41.3449,2.4554 -70.4682,2.61974 -79.203,21.11314 -5.7065,12.08196 6.0854,22.7633 11.2538,29.4493 21.8407,24.28905 53.3882,37.38879 73.6948,47.03553 7.6405,3.62963 30.0586,10.48407 30.0586,10.48407 -65.8782,-3.62335 -113.4003,16.6055 -141.2764,39.89622 -31.5288,29.16261 -17.581403,63.92354 47.0124,85.3268 38.1517,12.6416 57.0725,18.58695 113.9815,13.46232 33.52,-1.80673 38.8041,-0.73155 39.1383,2.01892 0.4705,3.87242 -37.2311,13.49165 -47.524,16.4606 -26.1853,7.55306 -94.8276,22.80438 -95.1712,22.87835 z"
         id="path4237"
         style="fill:#efeadc;fill-opacity:1;fill-rule:evenodd;stroke:#000000;stroke-width:0;stroke-linecap:butt;stroke-linejoin:miter;stroke-miterlimit:4;stroke-dasharray:none;stroke-opacity:1" /></g></g></svg>
